<?xml version="1.0" encoding="utf-8"?>
<!-- Generator: Adobe Illustrator 24.0.1, SVG Export Plug-In . SVG Version: 6.00 Build 0)  -->
<svg version="1.1" id="Layer_1" xmlns="http://www.w3.org/2000/svg" xmlns:xlink="http://www.w3.org/1999/xlink" x="0px" y="0px"
	 viewBox="0 0 93 50" style="enable-background:new 0 0 93 50;" xml:space="preserve">
<style type="text/css">
	.st0{fill-rule:evenodd;clip-rule:evenodd;fill:#FFFFFF;}
</style>
<title>Artboard 1</title>
<desc>Created with Sketch.</desc>
<g id="Artboard-1">
	<path id="Fill-1" class="st0" d="M78.4,36.9c0.3-1.2,0.8-2.1,1.6-2.7c0.8-0.6,1.8-1,3.1-1c1.3,0,2.2,0.3,2.9,1s1.1,1.6,1.3,2.7
		H78.4z M92.9,39.3c0-1.6-0.2-3-0.7-4.3c-0.4-1.3-1.1-2.4-1.9-3.3c-0.8-0.9-1.9-1.6-3.1-2.1c-1.2-0.5-2.6-0.7-4-0.7
		c-1.5,0-2.9,0.3-4.2,0.8c-1.2,0.5-2.3,1.3-3.2,2.2c-0.9,0.9-1.5,2-2,3.3s-0.7,2.6-0.7,4c0,1.5,0.2,2.8,0.7,4.1s1.2,2.3,2.1,3.3
		c0.9,0.9,2,1.6,3.3,2.2c1.3,0.5,2.8,0.8,4.4,0.8c1.9,0,3.5-0.3,4.7-0.8c1.3-0.5,2.3-1.1,3.1-1.8l-2-4.4c-0.7,0.6-1.5,1.1-2.4,1.5
		c-0.9,0.4-2,0.6-3.2,0.6c-0.6,0-1.1-0.1-1.7-0.2s-1.1-0.4-1.6-0.7s-0.9-0.7-1.2-1.2c-0.4-0.5-0.6-1-0.8-1.7v-0.1H93L92.9,39.3
		L92.9,39.3z"/>
	<path id="Fill-3" class="st0" d="M69.9,21.5c-1,0-2,0.1-2.8,0.4c-0.9,0.3-1.6,0.7-2.2,1.3c-0.6,0.6-1.1,1.3-1.5,2.3
		c-0.4,0.9-0.6,2-0.6,3.3v1h-4v4.4h4v15.3H68V34.2h5.6v-4.4H68v-0.4c0-1,0.2-1.8,0.6-2.3s1.1-0.7,2.2-0.7c0.4,0,0.9,0,1.4,0.1
		s1,0.1,1.6,0.2v-4.8c-0.7-0.1-1.3-0.2-1.9-0.3S70.6,21.5,69.9,21.5"/>
	<path id="Fill-5" class="st0" d="M27.4,29.3c-1.4,0-2.7,0.3-3.8,0.9c-1.1,0.6-1.9,1.4-2.6,2.4v-2.8h-5v19.6h5.2V40
		c0-1.8,0.3-3.1,1-4.2c0.7-1,1.8-1.6,3.3-1.6c1.1,0,2,0.3,2.6,1s1,1.7,1,3.2v10.9h5.3v-12c0-2.5-0.6-4.4-1.7-5.8
		C31.5,30,29.7,29.3,27.4,29.3"/>
	<path id="Fill-7" class="st0" d="M39.7,26.9v0.3V48v1.5h5.2V48V22C42,21.9,39.7,24.1,39.7,26.9"/>
	<path id="Fill-9" class="st0" d="M5.5,21.9v27.5h5.2v-22C10.7,24.4,8.3,21.9,5.5,21.9"/>
	<path id="Fill-11" class="st0" d="M25.2,0.3L24.8,0L23,1.2L12,8.4V7.1H5.5v5.6h0.1L0,16.4c1.8,2.7,5.4,3.4,8.1,1.7L24.8,7
		l16.7,11.1c2.7,1.8,6.3,1,8.1-1.7L25.2,0.3z"/>
	<polygon id="Fill-13" class="st0" points="50.1,49.4 55.3,49.4 55.3,29.8 50.1,29.8 	"/>
</g>
</svg>
